<svg width="508" height="511" viewBox="0 0 508 511" fill="none" xmlns="http://www.w3.org/2000/svg">
<path d="M499 3C501.761 3 504 5.23858 504 8L504 498C504 500.761 501.761 503 499 503L8.99997 503C6.23855 503 3.99998 500.761 3.99998 498L4 7.99997C4 5.23855 6.23858 2.99998 9 2.99998L499 3Z" fill="#2B2A2A"/>
<g filter="url(#filter0_d)">
<rect x="503" y="4" width="498" height="498" transform="rotate(90 503 4)" stroke="black" stroke-width="2"/>
</g>
<path d="M501 8L501 498L507 498L507 8L501 8ZM499 500L8.99997 500L8.99997 506L499 506L499 500ZM6.99998 498L7 7.99997L1 7.99997L0.999978 498L6.99998 498ZM9 5.99998L499 6L499 -2.18557e-07L9 -2.16371e-05L9 5.99998ZM7 7.99997C7 6.89541 7.89543 5.99998 9 5.99998L9 -2.16371e-05C4.58173 -2.18303e-05 1 3.58169 1 7.99997L7 7.99997ZM8.99997 500C7.89541 500 6.99998 499.105 6.99998 498L0.999978 498C0.999978 502.418 4.58169 506 8.99997 506L8.99997 500ZM501 498C501 499.105 500.105 500 499 500L499 506C503.418 506 507 502.418 507 498L501 498ZM507 8C507 3.58173 503.418 -2.54275e-08 499 -2.18557e-07L499 6C500.105 6 501 6.89543 501 8L507 8Z" fill="black"/>
<g clip-path="url(#clip0)">
<rect x="417" y="316" width="100" height="100" transform="rotate(90 417 316)" fill="#33BEA5" stroke="black" stroke-width="3"/>
<path d="M417 316L418 316L418 315L417 315L417 316ZM417 416L417 417L418 417L418 416L417 416ZM317 416L316 416L316 417L317 417L317 416ZM317 316L317 315L316 315L316 316L317 316ZM416 316L416 416L418 416L418 316L416 316ZM417 415L317 415L317 417L417 417L417 415ZM318 416L318 316L316 316L316 416L318 416ZM317 317L417 317L417 315L317 315L317 317Z" fill="black"/>
</g>
<path d="M416.5 321L416.5 411L417.5 411L417.5 321L416.5 321ZM412 415.5L322 415.5L322 416.5L412 416.5L412 415.5ZM317.5 411L317.5 321L316.5 321L316.5 411L317.5 411ZM322 316.5L412 316.5L412 315.5L322 315.5L322 316.5ZM317.5 321C317.5 318.515 319.515 316.5 322 316.5L322 315.5C318.962 315.5 316.5 317.962 316.5 321L317.5 321ZM322 415.5C319.515 415.5 317.5 413.485 317.5 411L316.5 411C316.5 414.038 318.962 416.5 322 416.5L322 415.5ZM416.5 411C416.5 413.485 414.485 415.5 412 415.5L412 416.5C415.038 416.5 417.5 414.038 417.5 411L416.5 411ZM417.5 321C417.5 317.962 415.038 315.5 412 315.5L412 316.5C414.485 316.5 416.5 318.515 416.5 321L417.5 321Z" fill="black"/>
<g clip-path="url(#clip1)">
<rect x="304" y="316" width="100" height="100" transform="rotate(90 304 316)" fill="#33BEA5" stroke="black" stroke-width="3"/>
<path d="M304 316L305 316L305 315L304 315L304 316ZM304 416L304 417L305 417L305 416L304 416ZM204 416L203 416L203 417L204 417L204 416ZM204 316L204 315L203 315L203 316L204 316ZM303 316L303 416L305 416L305 316L303 316ZM304 415L204 415L204 417L304 417L304 415ZM205 416L205 316L203 316L203 416L205 416ZM204 317L304 317L304 315L204 315L204 317Z" fill="black"/>
</g>
<path d="M303.5 321L303.5 411L304.5 411L304.5 321L303.5 321ZM299 415.5L209 415.5L209 416.5L299 416.5L299 415.5ZM204.5 411L204.5 321L203.5 321L203.5 411L204.5 411ZM209 316.5L299 316.5L299 315.5L209 315.5L209 316.5ZM204.5 321C204.5 318.515 206.515 316.5 209 316.5L209 315.5C205.962 315.5 203.5 317.962 203.5 321L204.5 321ZM209 415.5C206.515 415.5 204.5 413.485 204.5 411L203.5 411C203.5 414.038 205.962 416.5 209 416.5L209 415.5ZM303.5 411C303.5 413.485 301.485 415.5 299 415.5L299 416.5C302.038 416.5 304.5 414.038 304.5 411L303.5 411ZM304.5 321C304.5 317.962 302.038 315.5 299 315.5L299 316.5C301.485 316.5 303.5 318.515 303.5 321L304.5 321Z" fill="black"/>
<g clip-path="url(#clip2)">
<rect x="191" y="316" width="100" height="100" transform="rotate(90 191 316)" fill="#33BEA5" stroke="black" stroke-width="3"/>
</g>
<path d="M190.5 321L190.5 411L191.5 411L191.5 321L190.5 321ZM186 415.5L96 415.5L96 416.5L186 416.5L186 415.5ZM91.5 411L91.5 321L90.5 321L90.5 411L91.5 411ZM96 316.5L186 316.5L186 315.5L96 315.5L96 316.5ZM91.5 321C91.5 318.515 93.5147 316.5 96 316.5L96 315.5C92.9624 315.5 90.5 317.962 90.5 321L91.5 321ZM96 415.5C93.5147 415.5 91.5 413.485 91.5 411L90.5 411C90.5 414.038 92.9624 416.5 96 416.5L96 415.5ZM190.5 411C190.5 413.485 188.485 415.5 186 415.5L186 416.5C189.038 416.5 191.5 414.038 191.5 411L190.5 411ZM191.5 321C191.5 317.962 189.038 315.5 186 315.5L186 316.5C188.485 316.5 190.5 318.515 190.5 321L191.5 321Z" fill="black"/>
<g clip-path="url(#clip3)">
<rect x="191" y="203" width="100" height="100" transform="rotate(90 191 203)" fill="#33BEA5" stroke="black" stroke-width="3"/>
<path d="M191 203L192 203L192 202L191 202L191 203ZM191 303L191 304L192 304L192 303L191 303ZM91 303L90 303L90 304L91 304L91 303ZM91 203L91 202L90 202L90 203L91 203ZM190 203L190 303L192 303L192 203L190 203ZM191 302L91 302L91 304L191 304L191 302ZM92 303L92 203L90 203L90 303L92 303ZM91 204L191 204L191 202L91 202L91 204Z" fill="black"/>
</g>
<path d="M190.5 208L190.5 298L191.5 298L191.5 208L190.5 208ZM186 302.5L96 302.5L96 303.5L186 303.5L186 302.5ZM91.5 298L91.5 208L90.5 208L90.5 298L91.5 298ZM96 203.5L186 203.5L186 202.5L96 202.5L96 203.5ZM91.5 208C91.5 205.515 93.5147 203.5 96 203.5L96 202.5C92.9624 202.5 90.5 204.962 90.5 208L91.5 208ZM96 302.5C93.5147 302.5 91.5 300.485 91.5 298L90.5 298C90.5 301.038 92.9624 303.5 96 303.5L96 302.5ZM190.5 298C190.5 300.485 188.485 302.5 186 302.5L186 303.5C189.038 303.5 191.5 301.038 191.5 298L190.5 298ZM191.5 208C191.5 204.962 189.038 202.5 186 202.5L186 203.5C188.485 203.5 190.5 205.515 190.5 208L191.5 208Z" fill="black"/>
<g clip-path="url(#clip4)">
<rect x="298" y="96" width="100" height="100" transform="rotate(90 298 96)" fill="#33BEA5" stroke="black" stroke-width="3"/>
<path d="M298 96L299 96L299 95L298 95L298 96ZM298 196L298 197L299 197L299 196L298 196ZM198 196L197 196L197 197L198 197L198 196ZM198 96L198 95L197 95L197 96L198 96ZM297 96L297 196L299 196L299 96L297 96ZM298 195L198 195L198 197L298 197L298 195ZM199 196L199 96L197 96L197 196L199 196ZM198 97L298 97L298 95L198 95L198 97Z" fill="black"/>
</g>
<path d="M297.5 101L297.5 191L298.5 191L298.5 101L297.5 101ZM293 195.5L203 195.5L203 196.5L293 196.5L293 195.5ZM198.5 191L198.5 101L197.5 101L197.5 191L198.5 191ZM203 96.5L293 96.5L293 95.5L203 95.5L203 96.5ZM198.5 101C198.5 98.5147 200.515 96.5 203 96.5L203 95.5C199.962 95.5 197.5 97.9624 197.5 101L198.5 101ZM203 195.5C200.515 195.5 198.5 193.485 198.5 191L197.5 191C197.5 194.038 199.962 196.5 203 196.5L203 195.5ZM297.5 191C297.5 193.485 295.485 195.5 293 195.5L293 196.5C296.038 196.5 298.5 194.038 298.5 191L297.5 191ZM298.5 101C298.5 97.9624 296.038 95.5 293 95.5L293 96.5C295.485 96.5 297.5 98.5147 297.5 101L298.5 101Z" fill="black"/>
<defs>
<filter id="filter0_d" x="0" y="3" width="508" height="508" filterUnits="userSpaceOnUse" color-interpolation-filters="sRGB">
<feFlood flood-opacity="0" result="BackgroundImageFix"/>
<feColorMatrix in="SourceAlpha" type="matrix" values="0 0 0 0 0 0 0 0 0 0 0 0 0 0 0 0 0 0 127 0"/>
<feOffset dy="4"/>
<feGaussianBlur stdDeviation="2"/>
<feColorMatrix type="matrix" values="0 0 0 0 0 0 0 0 0 0 0 0 0 0 0 0 0 0 0.25 0"/>
<feBlend mode="normal" in2="BackgroundImageFix" result="effect1_dropShadow"/>
<feBlend mode="normal" in="SourceGraphic" in2="effect1_dropShadow" result="shape"/>
</filter>
<clipPath id="clip0">
<path d="M412 316C414.761 316 417 318.239 417 321L417 411C417 413.761 414.761 416 412 416L322 416C319.239 416 317 413.761 317 411L317 321C317 318.239 319.239 316 322 316L412 316Z" fill="white"/>
</clipPath>
<clipPath id="clip1">
<path d="M299 316C301.761 316 304 318.239 304 321L304 411C304 413.761 301.761 416 299 416L209 416C206.239 416 204 413.761 204 411L204 321C204 318.239 206.239 316 209 316L299 316Z" fill="white"/>
</clipPath>
<clipPath id="clip2">
<path d="M186 316C188.761 316 191 318.239 191 321L191 411C191 413.761 188.761 416 186 416L96 416C93.2386 416 91 413.761 91 411L91 321C91 318.239 93.2386 316 96 316L186 316Z" fill="white"/>
</clipPath>
<clipPath id="clip3">
<path d="M186 203C188.761 203 191 205.239 191 208L191 298C191 300.761 188.761 303 186 303L96 303C93.2386 303 91 300.761 91 298L91 208C91 205.239 93.2386 203 96 203L186 203Z" fill="white"/>
</clipPath>
<clipPath id="clip4">
<path d="M293 96C295.761 96 298 98.2386 298 101L298 191C298 193.761 295.761 196 293 196L203 196C200.239 196 198 193.761 198 191L198 101C198 98.2386 200.239 96 203 96L293 96Z" fill="white"/>
</clipPath>
</defs>
</svg>
