<svg width="508" height="511" viewBox="0 0 508 511" fill="none" xmlns="http://www.w3.org/2000/svg">
<g filter="url(#filter0_d)">
<rect x="5" y="4" width="498" height="498" stroke="black" stroke-width="2"/>
</g>
<path d="M4 3V0H1V3H4ZM504 3H507V0H504V3ZM504 503V506H507V503H504ZM4 503H1V506H4V503ZM4 6H504V0H4V6ZM501 3V503H507V3H501ZM504 500H4V506H504V500ZM7 503V3H1V503H7Z" fill="black"/>
<rect x="454" y="353" width="50" height="50" fill="#33BEA5" stroke="black"/>
<rect x="4" y="3" width="50" height="50" stroke="black" stroke-opacity="0.1"/>
<rect x="154" y="3" width="50" height="50" stroke="black" stroke-opacity="0.1"/>
<rect x="4" y="53" width="50" height="50" stroke="black" stroke-opacity="0.1"/>
<rect x="154" y="53" width="50" height="50" stroke="black" stroke-opacity="0.1"/>
<rect x="4" y="103" width="50" height="50" stroke="black" stroke-opacity="0.1"/>
<rect x="154" y="103" width="50" height="50" stroke="black" stroke-opacity="0.1"/>
<rect x="204" y="103" width="50" height="50" stroke="black" stroke-opacity="0.1"/>
<rect x="254" y="103" width="50" height="50" stroke="black" stroke-opacity="0.1"/>
<rect x="304" y="103" width="50" height="50" stroke="black" stroke-opacity="0.1"/>
<rect x="354" y="103" width="50" height="50" stroke="black" stroke-opacity="0.1"/>
<rect x="404" y="103" width="50" height="50" stroke="black" stroke-opacity="0.1"/>
<rect x="454" y="103" width="50" height="50" stroke="black" stroke-opacity="0.1"/>
<rect x="4" y="153" width="50" height="50" stroke="black" stroke-opacity="0.1"/>
<rect x="154" y="153" width="50" height="50" stroke="black" stroke-opacity="0.1"/>
<rect x="204" y="153" width="50" height="50" stroke="black" stroke-opacity="0.1"/>
<rect x="254" y="153" width="50" height="50" stroke="black" stroke-opacity="0.1"/>
<rect x="304" y="153" width="50" height="50" stroke="black" stroke-opacity="0.1"/>
<rect x="354" y="153" width="50" height="50" stroke="black" stroke-opacity="0.1"/>
<rect x="4" y="203" width="50" height="50" stroke="black" stroke-opacity="0.1"/>
<rect x="154" y="203" width="50" height="50" stroke="black" stroke-opacity="0.1"/>
<rect x="204" y="203" width="50" height="50" stroke="black" stroke-opacity="0.1"/>
<rect x="254" y="203" width="50" height="50" stroke="black" stroke-opacity="0.1"/>
<rect x="304" y="203" width="50" height="50" stroke="black" stroke-opacity="0.1"/>
<rect x="354" y="203" width="50" height="50" stroke="black" stroke-opacity="0.1"/>
<rect x="4" y="253" width="50" height="50" stroke="black" stroke-opacity="0.1"/>
<rect x="154" y="253" width="50" height="50" stroke="black" stroke-opacity="0.1"/>
<rect x="204" y="253" width="50" height="50" stroke="black" stroke-opacity="0.1"/>
<rect x="254" y="253" width="50" height="50" stroke="black" stroke-opacity="0.1"/>
<rect x="304" y="253" width="50" height="50" stroke="black" stroke-opacity="0.1"/>
<rect x="354" y="253" width="50" height="50" stroke="black" stroke-opacity="0.1"/>
<rect x="4" y="303" width="50" height="50" stroke="black" stroke-opacity="0.1"/>
<rect x="54" y="303" width="50" height="50" stroke="black" stroke-opacity="0.1"/>
<rect x="104" y="303" width="50" height="50" stroke="black" stroke-opacity="0.1"/>
<rect x="154" y="303" width="50" height="50" stroke="black" stroke-opacity="0.1"/>
<rect x="204" y="303" width="50" height="50" stroke="black" stroke-opacity="0.1"/>
<rect x="254" y="303" width="50" height="50" stroke="black" stroke-opacity="0.1"/>
<rect x="304" y="303" width="50" height="50" stroke="black" stroke-opacity="0.1"/>
<rect x="354" y="303" width="50" height="50" stroke="black" stroke-opacity="0.1"/>
<rect x="4" y="353" width="50" height="50" stroke="black" stroke-opacity="0.1"/>
<rect x="354" y="353" width="50" height="50" stroke="black" stroke-opacity="0.1"/>
<rect x="4" y="403" width="50" height="50" stroke="black" stroke-opacity="0.1"/>
<rect x="354" y="403" width="50" height="50" stroke="black" stroke-opacity="0.1"/>
<rect x="4" y="453" width="50" height="50" stroke="black" stroke-opacity="0.1"/>
<rect x="54" y="453" width="50" height="50" stroke="black" stroke-opacity="0.1"/>
<rect x="104" y="453" width="50" height="50" stroke="black" stroke-opacity="0.1"/>
<rect x="154" y="453" width="50" height="50" stroke="black" stroke-opacity="0.1"/>
<rect x="204" y="453" width="50" height="50" stroke="black" stroke-opacity="0.1"/>
<rect x="254" y="453" width="50" height="50" stroke="black" stroke-opacity="0.1"/>
<rect x="304" y="453" width="50" height="50" stroke="black" stroke-opacity="0.1"/>
<rect x="354" y="453" width="50" height="50" stroke="black" stroke-opacity="0.1"/>
<rect x="404" y="453" width="50" height="50" stroke="black" stroke-opacity="0.1"/>
<rect x="454" y="453" width="50" height="50" stroke="black" stroke-opacity="0.1"/>
<rect x="454" y="3" width="50" height="50" fill="#33BEA5" stroke="black"/>
<path d="M454 3V0H451V3H454ZM504 3H507V0H504V3ZM504 53V56H507V53H504ZM454 53H451V56H454V53ZM454 6H504V0H454V6ZM501 3V53H507V3H501ZM504 50H454V56H504V50ZM457 53V3H451V53H457Z" fill="black"/>
<rect x="404" y="3" width="50" height="50" fill="#33BEA5" stroke="black"/>
<path d="M404 3V0H401V3H404ZM454 3H457V0H454V3ZM454 53V56H457V53H454ZM404 53H401V56H404V53ZM404 6H454V0H404V6ZM451 3V53H457V3H451ZM454 50H404V56H454V50ZM407 53V3H401V53H407Z" fill="black"/>
<rect x="354" y="3" width="50" height="50" fill="#33BEA5" stroke="black"/>
<path d="M354 3V0H351V3H354ZM404 3H407V0H404V3ZM404 53V56H407V53H404ZM354 53H351V56H354V53ZM354 6H404V0H354V6ZM401 3V53H407V3H401ZM404 50H354V56H404V50ZM357 53V3H351V53H357Z" fill="black"/>
<rect x="304" y="3" width="50" height="50" fill="#33BEA5" stroke="black"/>
<rect x="254" y="3" width="50" height="50" fill="#33BEA5" stroke="black"/>
<rect x="204" y="3" width="50" height="50" fill="#33BEA5" stroke="black"/>
<rect x="454" y="53" width="50" height="50" fill="#33BEA5" stroke="black"/>
<rect x="404" y="53" width="50" height="50" fill="#33BEA5" stroke="black"/>
<rect x="354" y="53" width="50" height="50" fill="#33BEA5" stroke="black"/>
<rect x="454" y="403" width="50" height="50" fill="#33BEA5" stroke="black"/>
<rect x="404" y="403" width="50" height="50" fill="#33BEA5" stroke="black"/>
<rect x="304" y="353" width="50" height="50" fill="#33BEA5" stroke="black"/>
<rect x="304" y="403" width="50" height="50" fill="#33BEA5" stroke="black"/>
<rect x="254" y="353" width="50" height="50" fill="#33BEA5" stroke="black"/>
<rect x="254" y="403" width="50" height="50" fill="#33BEA5" stroke="black"/>
<rect x="204" y="353" width="50" height="50" fill="#33BEA5" stroke="black"/>
<rect x="204" y="403" width="50" height="50" fill="#33BEA5" stroke="black"/>
<rect x="154" y="353" width="50" height="50" fill="#33BEA5" stroke="black"/>
<rect x="154" y="403" width="50" height="50" fill="#33BEA5" stroke="black"/>
<rect x="104" y="353" width="50" height="50" fill="#33BEA5" stroke="black"/>
<rect x="104" y="403" width="50" height="50" fill="#33BEA5" stroke="black"/>
<rect x="54" y="353" width="50" height="50" fill="#33BEA5" stroke="black"/>
<rect x="54" y="403" width="50" height="50" fill="#33BEA5" stroke="black"/>
<rect x="304" y="53" width="50" height="50" fill="#33BEA5" stroke="black"/>
<rect x="254" y="53" width="50" height="50" fill="#33BEA5" stroke="black"/>
<rect x="204" y="53" width="50" height="50" fill="#33BEA5" stroke="black"/>
<rect x="104" y="3" width="50" height="50" fill="#33BEA5" stroke="black"/>
<rect x="54" y="3" width="50" height="50" fill="#33BEA5" stroke="black"/>
<rect x="104" y="53" width="50" height="50" fill="#33BEA5" stroke="black"/>
<rect x="54" y="53" width="50" height="50" fill="#33BEA5" stroke="black"/>
<rect x="104" y="103" width="50" height="50" fill="#33BEA5" stroke="black"/>
<rect x="54" y="103" width="50" height="50" fill="#33BEA5" stroke="black"/>
<rect x="104" y="153" width="50" height="50" fill="#33BEA5" stroke="black"/>
<rect x="54" y="153" width="50" height="50" fill="#33BEA5" stroke="black"/>
<rect x="54" y="203" width="50" height="50" fill="#33BEA5" stroke="black"/>
<rect x="104" y="203" width="50" height="50" fill="#33BEA5" stroke="black"/>
<rect x="54" y="253" width="50" height="50" fill="#33BEA5" stroke="black"/>
<rect x="104" y="253" width="50" height="50" fill="#33BEA5" stroke="black"/>
<rect x="404" y="153" width="50" height="50" fill="#33BEA5" stroke="black"/>
<rect x="454" y="153" width="50" height="50" fill="#33BEA5" stroke="black"/>
<rect x="404" y="203" width="50" height="50" fill="#33BEA5" stroke="black"/>
<rect x="454" y="203" width="50" height="50" fill="#33BEA5" stroke="black"/>
<rect x="404" y="253" width="50" height="50" fill="#33BEA5" stroke="black"/>
<rect x="454" y="253" width="50" height="50" fill="#33BEA5" stroke="black"/>
<rect x="404" y="303" width="50" height="50" fill="#33BEA5" stroke="black"/>
<rect x="454" y="303" width="50" height="50" fill="#33BEA5" stroke="black"/>
<rect x="404" y="353" width="50" height="50" fill="#33BEA5" stroke="black"/>
<defs>
<filter id="filter0_d" x="0" y="3" width="508" height="508" filterUnits="userSpaceOnUse" color-interpolation-filters="sRGB">
<feFlood flood-opacity="0" result="BackgroundImageFix"/>
<feColorMatrix in="SourceAlpha" type="matrix" values="0 0 0 0 0 0 0 0 0 0 0 0 0 0 0 0 0 0 127 0"/>
<feOffset dy="4"/>
<feGaussianBlur stdDeviation="2"/>
<feColorMatrix type="matrix" values="0 0 0 0 0 0 0 0 0 0 0 0 0 0 0 0 0 0 0.25 0"/>
<feBlend mode="normal" in2="BackgroundImageFix" result="effect1_dropShadow"/>
<feBlend mode="normal" in="SourceGraphic" in2="effect1_dropShadow" result="shape"/>
</filter>
</defs>
</svg>
