<svg width="508" height="511" viewBox="0 0 508 511" fill="none" xmlns="http://www.w3.org/2000/svg">
<g filter="url(#filter0_d)">
<rect x="5" y="4" width="498" height="498" stroke="black" stroke-width="2"/>
</g>
<path d="M4 3V0H1V3H4ZM504 3H507V0H504V3ZM504 503V506H507V503H504ZM4 503H1V506H4V503ZM4 6H504V0H4V6ZM501 3V503H507V3H501ZM504 500H4V506H504V500ZM7 503V3H1V503H7Z" fill="black"/>
<rect x="4" y="3" width="50" height="50" stroke="black" stroke-opacity="0.1"/>
<rect x="54" y="3" width="50" height="50" stroke="black" stroke-opacity="0.1"/>
<rect x="104" y="3" width="50" height="50" stroke="black" stroke-opacity="0.1"/>
<rect x="154" y="3" width="50" height="50" stroke="black" stroke-opacity="0.1"/>
<rect x="204" y="3" width="50" height="50" stroke="black" stroke-opacity="0.1"/>
<rect x="254" y="3" width="50" height="50" stroke="black" stroke-opacity="0.1"/>
<rect x="354" y="3" width="50" height="50" stroke="black" stroke-opacity="0.1"/>
<rect x="404" y="3" width="50" height="50" stroke="black" stroke-opacity="0.1"/>
<rect x="454" y="3" width="50" height="50" stroke="black" stroke-opacity="0.1"/>
<rect x="4" y="53" width="50" height="50" stroke="black" stroke-opacity="0.1"/>
<rect x="54" y="53" width="50" height="50" stroke="black" stroke-opacity="0.1"/>
<rect x="104" y="53" width="50" height="50" stroke="black" stroke-opacity="0.1"/>
<rect x="154" y="53" width="50" height="50" stroke="black" stroke-opacity="0.1"/>
<rect x="204" y="53" width="50" height="50" stroke="black" stroke-opacity="0.1"/>
<rect x="254" y="53" width="50" height="50" stroke="black" stroke-opacity="0.1"/>
<rect x="354" y="53" width="50" height="50" stroke="black" stroke-opacity="0.1"/>
<rect x="404" y="53" width="50" height="50" stroke="black" stroke-opacity="0.1"/>
<rect x="454" y="53" width="50" height="50" stroke="black" stroke-opacity="0.1"/>
<rect x="4" y="103" width="50" height="50" stroke="black" stroke-opacity="0.1"/>
<rect x="54" y="103" width="50" height="50" stroke="black" stroke-opacity="0.1"/>
<rect x="104" y="103" width="50" height="50" stroke="black" stroke-opacity="0.1"/>
<rect x="154" y="103" width="50" height="50" stroke="black" stroke-opacity="0.1"/>
<rect x="204" y="103" width="50" height="50" stroke="black" stroke-opacity="0.1"/>
<rect x="254" y="103" width="50" height="50" stroke="black" stroke-opacity="0.1"/>
<rect x="354" y="103" width="50" height="50" stroke="black" stroke-opacity="0.1"/>
<rect x="404" y="103" width="50" height="50" stroke="black" stroke-opacity="0.1"/>
<rect x="454" y="103" width="50" height="50" stroke="black" stroke-opacity="0.1"/>
<rect x="4" y="153" width="50" height="50" stroke="black" stroke-opacity="0.1"/>
<rect x="54" y="153" width="50" height="50" stroke="black" stroke-opacity="0.1"/>
<rect x="104" y="153" width="50" height="50" stroke="black" stroke-opacity="0.1"/>
<rect x="154" y="153" width="50" height="50" stroke="black" stroke-opacity="0.1"/>
<rect x="204" y="153" width="50" height="50" stroke="black" stroke-opacity="0.1"/>
<rect x="254" y="153" width="50" height="50" stroke="black" stroke-opacity="0.1"/>
<rect x="354" y="153" width="50" height="50" stroke="black" stroke-opacity="0.1"/>
<rect x="404" y="153" width="50" height="50" stroke="black" stroke-opacity="0.1"/>
<rect x="454" y="153" width="50" height="50" stroke="black" stroke-opacity="0.1"/>
<rect x="4" y="203" width="50" height="50" stroke="black" stroke-opacity="0.1"/>
<rect x="54" y="203" width="50" height="50" stroke="black" stroke-opacity="0.1"/>
<rect x="104" y="203" width="50" height="50" stroke="black" stroke-opacity="0.1"/>
<rect x="154" y="203" width="50" height="50" stroke="black" stroke-opacity="0.1"/>
<rect x="204" y="203" width="50" height="50" stroke="black" stroke-opacity="0.1"/>
<rect x="254" y="203" width="50" height="50" stroke="black" stroke-opacity="0.1"/>
<rect x="354" y="203" width="50" height="50" stroke="black" stroke-opacity="0.1"/>
<rect x="404" y="203" width="50" height="50" stroke="black" stroke-opacity="0.1"/>
<rect x="454" y="203" width="50" height="50" stroke="black" stroke-opacity="0.1"/>
<rect x="4" y="253" width="50" height="50" stroke="black" stroke-opacity="0.1"/>
<rect x="54" y="253" width="50" height="50" stroke="black" stroke-opacity="0.1"/>
<rect x="104" y="253" width="50" height="50" stroke="black" stroke-opacity="0.1"/>
<rect x="154" y="253" width="50" height="50" stroke="black" stroke-opacity="0.1"/>
<rect x="204" y="253" width="50" height="50" stroke="black" stroke-opacity="0.1"/>
<rect x="254" y="253" width="50" height="50" stroke="black" stroke-opacity="0.1"/>
<rect x="354" y="253" width="50" height="50" stroke="black" stroke-opacity="0.1"/>
<rect x="404" y="253" width="50" height="50" stroke="black" stroke-opacity="0.1"/>
<rect x="454" y="253" width="50" height="50" stroke="black" stroke-opacity="0.1"/>
<rect x="4" y="303" width="50" height="50" stroke="black" stroke-opacity="0.1"/>
<rect x="54" y="303" width="50" height="50" stroke="black" stroke-opacity="0.1"/>
<rect x="104" y="303" width="50" height="50" stroke="black" stroke-opacity="0.1"/>
<rect x="154" y="303" width="50" height="50" stroke="black" stroke-opacity="0.1"/>
<rect x="204" y="303" width="50" height="50" stroke="black" stroke-opacity="0.1"/>
<rect x="254" y="303" width="50" height="50" stroke="black" stroke-opacity="0.1"/>
<rect x="304" y="303" width="50" height="50" stroke="black" stroke-opacity="0.1"/>
<rect x="354" y="303" width="50" height="50" stroke="black" stroke-opacity="0.1"/>
<rect x="404" y="303" width="50" height="50" stroke="black" stroke-opacity="0.1"/>
<rect x="454" y="303" width="50" height="50" stroke="black" stroke-opacity="0.1"/>
<rect x="4" y="353" width="50" height="50" stroke="black" stroke-opacity="0.1"/>
<rect x="54" y="353" width="50" height="50" stroke="black" stroke-opacity="0.1"/>
<rect x="104" y="353" width="50" height="50" stroke="black" stroke-opacity="0.1"/>
<rect x="154" y="353" width="50" height="50" stroke="black" stroke-opacity="0.1"/>
<rect x="204" y="353" width="50" height="50" stroke="black" stroke-opacity="0.1"/>
<rect x="254" y="353" width="50" height="50" stroke="black" stroke-opacity="0.1"/>
<rect x="354" y="353" width="50" height="50" stroke="black" stroke-opacity="0.1"/>
<rect x="404" y="353" width="50" height="50" stroke="black" stroke-opacity="0.1"/>
<rect x="454" y="353" width="50" height="50" stroke="black" stroke-opacity="0.1"/>
<rect x="4" y="403" width="50" height="50" stroke="black" stroke-opacity="0.1"/>
<rect x="54" y="403" width="50" height="50" stroke="black" stroke-opacity="0.1"/>
<rect x="104" y="403" width="50" height="50" stroke="black" stroke-opacity="0.1"/>
<rect x="154" y="403" width="50" height="50" stroke="black" stroke-opacity="0.1"/>
<rect x="204" y="403" width="50" height="50" stroke="black" stroke-opacity="0.1"/>
<rect x="254" y="403" width="50" height="50" stroke="black" stroke-opacity="0.1"/>
<rect x="354" y="403" width="50" height="50" stroke="black" stroke-opacity="0.1"/>
<rect x="404" y="403" width="50" height="50" stroke="black" stroke-opacity="0.1"/>
<rect x="454" y="403" width="50" height="50" stroke="black" stroke-opacity="0.1"/>
<rect x="4" y="453" width="50" height="50" stroke="black" stroke-opacity="0.1"/>
<rect x="54" y="453" width="50" height="50" stroke="black" stroke-opacity="0.1"/>
<rect x="104" y="453" width="50" height="50" stroke="black" stroke-opacity="0.1"/>
<rect x="154" y="453" width="50" height="50" stroke="black" stroke-opacity="0.1"/>
<rect x="204" y="453" width="50" height="50" stroke="black" stroke-opacity="0.1"/>
<rect x="254" y="453" width="50" height="50" stroke="black" stroke-opacity="0.1"/>
<rect x="354" y="453" width="50" height="50" stroke="black" stroke-opacity="0.1"/>
<rect x="404" y="453" width="50" height="50" stroke="black" stroke-opacity="0.1"/>
<rect x="454" y="453" width="50" height="50" stroke="black" stroke-opacity="0.1"/>
<rect x="304" y="3" width="50" height="50" fill="#33BEA5" stroke="black"/>
<path d="M304 3V0H301V3H304ZM354 3H357V0H354V3ZM354 53V56H357V53H354ZM304 53H301V56H304V53ZM304 6H354V0H304V6ZM351 3V53H357V3H351ZM354 50H304V56H354V50ZM307 53V3H301V53H307Z" fill="black"/>
<rect x="304" y="53" width="50" height="50" fill="#33BEA5" stroke="black"/>
<path d="M304 53V50H301V53H304ZM354 53H357V50H354V53ZM354 103V106H357V103H354ZM304 103H301V106H304V103ZM304 56H354V50H304V56ZM351 53V103H357V53H351ZM354 100H304V106H354V100ZM307 103V53H301V103H307Z" fill="black"/>
<rect x="304" y="103" width="50" height="50" fill="#33BEA5" stroke="black"/>
<path d="M304 103V100H301V103H304ZM354 103H357V100H354V103ZM354 153V156H357V153H354ZM304 153H301V156H304V153ZM304 106H354V100H304V106ZM351 103V153H357V103H351ZM354 150H304V156H354V150ZM307 153V103H301V153H307Z" fill="black"/>
<rect x="304" y="153" width="50" height="50" fill="#33BEA5" stroke="black"/>
<path d="M304 153V150H301V153H304ZM354 153H357V150H354V153ZM354 203V206H357V203H354ZM304 203H301V206H304V203ZM304 156H354V150H304V156ZM351 153V203H357V153H351ZM354 200H304V206H354V200ZM307 203V153H301V203H307Z" fill="black"/>
<rect x="304" y="203" width="50" height="50" fill="#33BEA5" stroke="black"/>
<path d="M304 203V200H301V203H304ZM354 203H357V200H354V203ZM354 253V256H357V253H354ZM304 253H301V256H304V253ZM304 206H354V200H304V206ZM351 203V253H357V203H351ZM354 250H304V256H354V250ZM307 253V203H301V253H307Z" fill="black"/>
<rect x="304" y="253" width="50" height="50" fill="#33BEA5" stroke="black"/>
<path d="M304 253V250H301V253H304ZM354 253H357V250H354V253ZM354 303V306H357V303H354ZM304 303H301V306H304V303ZM304 256H354V250H304V256ZM351 253V303H357V253H351ZM354 300H304V306H354V300ZM307 303V253H301V303H307Z" fill="black"/>
<rect x="304" y="303" width="50" height="50" fill="#33BEA5" stroke="black"/>
<path d="M304 303V300H301V303H304ZM354 303H357V300H354V303ZM354 353V356H357V353H354ZM304 353H301V356H304V353ZM304 306H354V300H304V306ZM351 303V353H357V303H351ZM354 350H304V356H354V350ZM307 353V303H301V353H307Z" fill="black"/>
<rect x="304" y="353" width="50" height="50" fill="#33BEA5" stroke="black"/>
<path d="M304 353V350H301V353H304ZM354 353H357V350H354V353ZM354 403V406H357V403H354ZM304 403H301V406H304V403ZM304 356H354V350H304V356ZM351 353V403H357V353H351ZM354 400H304V406H354V400ZM307 403V353H301V403H307Z" fill="black"/>
<rect x="304" y="403" width="50" height="50" fill="#33BEA5" stroke="black"/>
<path d="M304 403V400H301V403H304ZM354 403H357V400H354V403ZM354 453V456H357V453H354ZM304 453H301V456H304V453ZM304 406H354V400H304V406ZM351 403V453H357V403H351ZM354 450H304V456H354V450ZM307 453V403H301V453H307Z" fill="black"/>
<rect x="304" y="453" width="50" height="50" fill="#33BEA5" stroke="black"/>
<path d="M304 453V450H301V453H304ZM354 453H357V450H354V453ZM354 503V506H357V503H354ZM304 503H301V506H304V503ZM304 456H354V450H304V456ZM351 453V503H357V453H351ZM354 500H304V506H354V500ZM307 503V453H301V503H307Z" fill="black"/>
<defs>
<filter id="filter0_d" x="0" y="3" width="508" height="508" filterUnits="userSpaceOnUse" color-interpolation-filters="sRGB">
<feFlood flood-opacity="0" result="BackgroundImageFix"/>
<feColorMatrix in="SourceAlpha" type="matrix" values="0 0 0 0 0 0 0 0 0 0 0 0 0 0 0 0 0 0 127 0"/>
<feOffset dy="4"/>
<feGaussianBlur stdDeviation="2"/>
<feColorMatrix type="matrix" values="0 0 0 0 0 0 0 0 0 0 0 0 0 0 0 0 0 0 0.25 0"/>
<feBlend mode="normal" in2="BackgroundImageFix" result="effect1_dropShadow"/>
<feBlend mode="normal" in="SourceGraphic" in2="effect1_dropShadow" result="shape"/>
</filter>
</defs>
</svg>
