<svg width="508" height="511" viewBox="0 0 508 511" fill="none" xmlns="http://www.w3.org/2000/svg">
<g filter="url(#filter0_d)">
<rect x="5" y="4" width="498" height="498" stroke="black" stroke-width="2"/>
</g>
<path d="M4 3V0H1V3H4ZM504 3H507V0H504V3ZM504 503V506H507V503H504ZM4 503H1V506H4V503ZM4 6H504V0H4V6ZM501 3V503H507V3H501ZM504 500H4V506H504V500ZM7 503V3H1V503H7Z" fill="black"/>
<rect x="254" y="353" width="50" height="50" fill="#33BEA5" stroke="black"/>
<path d="M254 353V350H251V353H254ZM304 353H307V350H304V353ZM304 403V406H307V403H304ZM254 403H251V406H254V403ZM254 356H304V350H254V356ZM301 353V403H307V353H301ZM304 400H254V406H304V400ZM257 403V353H251V403H257Z" fill="black"/>
<rect x="154" y="353" width="50" height="50" fill="#33BEA5" stroke="black"/>
<path d="M154 353V350H151V353H154ZM204 353H207V350H204V353ZM204 403V406H207V403H204ZM154 403H151V406H154V403ZM154 356H204V350H154V356ZM201 353V403H207V353H201ZM204 400H154V406H204V400ZM157 403V353H151V403H157Z" fill="black"/>
<rect x="4" y="3" width="50" height="50" stroke="black" stroke-opacity="0.1"/>
<rect x="54" y="3" width="50" height="50" stroke="black" stroke-opacity="0.1"/>
<rect x="104" y="3" width="50" height="50" stroke="black" stroke-opacity="0.1"/>
<rect x="154" y="3" width="50" height="50" stroke="black" stroke-opacity="0.1"/>
<rect x="254" y="3" width="50" height="50" stroke="black" stroke-opacity="0.1"/>
<rect x="304" y="3" width="50" height="50" stroke="black" stroke-opacity="0.1"/>
<rect x="354" y="3" width="50" height="50" stroke="black" stroke-opacity="0.1"/>
<rect x="404" y="3" width="50" height="50" stroke="black" stroke-opacity="0.1"/>
<rect x="454" y="3" width="50" height="50" stroke="black" stroke-opacity="0.1"/>
<rect x="4" y="53" width="50" height="50" stroke="black" stroke-opacity="0.1"/>
<rect x="54" y="53" width="50" height="50" stroke="black" stroke-opacity="0.1"/>
<rect x="104" y="53" width="50" height="50" stroke="black" stroke-opacity="0.1"/>
<rect x="154" y="53" width="50" height="50" stroke="black" stroke-opacity="0.1"/>
<rect x="254" y="53" width="50" height="50" stroke="black" stroke-opacity="0.1"/>
<rect x="304" y="53" width="50" height="50" stroke="black" stroke-opacity="0.1"/>
<rect x="354" y="53" width="50" height="50" stroke="black" stroke-opacity="0.1"/>
<rect x="404" y="53" width="50" height="50" stroke="black" stroke-opacity="0.1"/>
<rect x="454" y="53" width="50" height="50" stroke="black" stroke-opacity="0.1"/>
<rect x="4" y="103" width="50" height="50" stroke="black" stroke-opacity="0.1"/>
<rect x="54" y="103" width="50" height="50" stroke="black" stroke-opacity="0.1"/>
<rect x="104" y="103" width="50" height="50" stroke="black" stroke-opacity="0.1"/>
<rect x="204" y="103" width="50" height="50" stroke="black" stroke-opacity="0.1"/>
<rect x="304" y="103" width="50" height="50" stroke="black" stroke-opacity="0.1"/>
<rect x="354" y="103" width="50" height="50" stroke="black" stroke-opacity="0.1"/>
<rect x="404" y="103" width="50" height="50" stroke="black" stroke-opacity="0.1"/>
<rect x="454" y="103" width="50" height="50" stroke="black" stroke-opacity="0.1"/>
<rect x="4" y="153" width="50" height="50" stroke="black" stroke-opacity="0.1"/>
<rect x="54" y="153" width="50" height="50" stroke="black" stroke-opacity="0.1"/>
<rect x="104" y="153" width="50" height="50" stroke="black" stroke-opacity="0.1"/>
<rect x="154" y="153" width="50" height="50" stroke="black" stroke-opacity="0.1"/>
<rect x="254" y="153" width="50" height="50" stroke="black" stroke-opacity="0.1"/>
<rect x="304" y="153" width="50" height="50" stroke="black" stroke-opacity="0.1"/>
<rect x="354" y="153" width="50" height="50" stroke="black" stroke-opacity="0.1"/>
<rect x="404" y="153" width="50" height="50" stroke="black" stroke-opacity="0.1"/>
<rect x="454" y="153" width="50" height="50" stroke="black" stroke-opacity="0.1"/>
<rect x="4" y="203" width="50" height="50" stroke="black" stroke-opacity="0.1"/>
<rect x="54" y="203" width="50" height="50" stroke="black" stroke-opacity="0.1"/>
<rect x="104" y="203" width="50" height="50" stroke="black" stroke-opacity="0.1"/>
<rect x="154" y="203" width="50" height="50" stroke="black" stroke-opacity="0.1"/>
<rect x="254" y="203" width="50" height="50" stroke="black" stroke-opacity="0.1"/>
<rect x="304" y="203" width="50" height="50" stroke="black" stroke-opacity="0.1"/>
<rect x="154" y="103" width="50" height="50" fill="#33BEA5" stroke="black"/>
<path d="M154 103V100H151V103H154ZM204 103H207V100H204V103ZM204 153V156H207V153H204ZM154 153H151V156H154V153ZM154 106H204V100H154V106ZM201 103V153H207V103H201ZM204 150H154V156H204V150ZM157 153V103H151V153H157Z" fill="black"/>
<rect x="254" y="103" width="50" height="50" fill="#33BEA5" stroke="black"/>
<path d="M254 103V100H251V103H254ZM304 103H307V100H304V103ZM304 153V156H307V153H304ZM254 153H251V156H254V153ZM254 106H304V100H254V106ZM301 103V153H307V103H301ZM304 150H254V156H304V150ZM257 153V103H251V153H257Z" fill="black"/>
<rect x="354" y="203" width="50" height="50" stroke="black" stroke-opacity="0.1"/>
<rect x="404" y="203" width="50" height="50" stroke="black" stroke-opacity="0.1"/>
<rect x="454" y="203" width="50" height="50" stroke="black" stroke-opacity="0.1"/>
<rect x="4" y="253" width="50" height="50" stroke="black" stroke-opacity="0.1"/>
<rect x="54" y="253" width="50" height="50" stroke="black" stroke-opacity="0.1"/>
<rect x="104" y="253" width="50" height="50" stroke="black" stroke-opacity="0.1"/>
<rect x="154" y="253" width="50" height="50" stroke="black" stroke-opacity="0.1"/>
<rect x="254" y="253" width="50" height="50" stroke="black" stroke-opacity="0.1"/>
<rect x="304" y="253" width="50" height="50" stroke="black" stroke-opacity="0.1"/>
<rect x="354" y="253" width="50" height="50" stroke="black" stroke-opacity="0.1"/>
<rect x="404" y="253" width="50" height="50" stroke="black" stroke-opacity="0.1"/>
<rect x="454" y="253" width="50" height="50" stroke="black" stroke-opacity="0.1"/>
<rect x="4" y="303" width="50" height="50" stroke="black" stroke-opacity="0.1"/>
<rect x="54" y="303" width="50" height="50" stroke="black" stroke-opacity="0.1"/>
<rect x="104" y="303" width="50" height="50" stroke="black" stroke-opacity="0.1"/>
<rect x="154" y="303" width="50" height="50" stroke="black" stroke-opacity="0.1"/>
<rect x="254" y="303" width="50" height="50" stroke="black" stroke-opacity="0.1"/>
<rect x="204" y="453" width="50" height="50" fill="#33BEA5" stroke="black"/>
<path d="M204 453V450H201V453H204ZM254 453H257V450H254V453ZM254 503V506H257V503H254ZM204 503H201V506H204V503ZM204 456H254V450H204V456ZM251 453V503H257V453H251ZM254 500H204V506H254V500ZM207 503V453H201V503H207Z" fill="black"/>
<rect x="304" y="303" width="50" height="50" stroke="black" stroke-opacity="0.1"/>
<rect x="354" y="303" width="50" height="50" stroke="black" stroke-opacity="0.1"/>
<rect x="404" y="303" width="50" height="50" stroke="black" stroke-opacity="0.1"/>
<rect x="454" y="303" width="50" height="50" stroke="black" stroke-opacity="0.1"/>
<rect x="4" y="353" width="50" height="50" stroke="black" stroke-opacity="0.1"/>
<rect x="54" y="353" width="50" height="50" stroke="black" stroke-opacity="0.1"/>
<rect x="104" y="353" width="50" height="50" stroke="black" stroke-opacity="0.1"/>
<rect x="204" y="353" width="50" height="50" stroke="black" stroke-opacity="0.1"/>
<rect x="304" y="353" width="50" height="50" stroke="black" stroke-opacity="0.1"/>
<rect x="354" y="353" width="50" height="50" stroke="black" stroke-opacity="0.1"/>
<rect x="404" y="353" width="50" height="50" stroke="black" stroke-opacity="0.1"/>
<rect x="454" y="353" width="50" height="50" stroke="black" stroke-opacity="0.1"/>
<rect x="4" y="403" width="50" height="50" stroke="black" stroke-opacity="0.1"/>
<rect x="54" y="403" width="50" height="50" stroke="black" stroke-opacity="0.1"/>
<rect x="104" y="403" width="50" height="50" stroke="black" stroke-opacity="0.1"/>
<rect x="154" y="403" width="50" height="50" stroke="black" stroke-opacity="0.1"/>
<rect x="204" y="403" width="50" height="50" stroke="black" stroke-opacity="0.1"/>
<rect x="254" y="403" width="50" height="50" stroke="black" stroke-opacity="0.1"/>
<rect x="304" y="403" width="50" height="50" stroke="black" stroke-opacity="0.1"/>
<rect x="354" y="403" width="50" height="50" stroke="black" stroke-opacity="0.1"/>
<rect x="404" y="403" width="50" height="50" stroke="black" stroke-opacity="0.1"/>
<rect x="454" y="403" width="50" height="50" stroke="black" stroke-opacity="0.1"/>
<rect x="4" y="453" width="50" height="50" stroke="black" stroke-opacity="0.1"/>
<rect x="54" y="453" width="50" height="50" stroke="black" stroke-opacity="0.1"/>
<rect x="104" y="453" width="50" height="50" stroke="black" stroke-opacity="0.1"/>
<rect x="154" y="453" width="50" height="50" stroke="black" stroke-opacity="0.1"/>
<rect x="204" y="453" width="50" height="50" stroke="black" stroke-opacity="0.1"/>
<rect x="254" y="453" width="50" height="50" stroke="black" stroke-opacity="0.1"/>
<rect x="304" y="453" width="50" height="50" stroke="black" stroke-opacity="0.1"/>
<rect x="354" y="453" width="50" height="50" stroke="black" stroke-opacity="0.1"/>
<rect x="404" y="453" width="50" height="50" stroke="black" stroke-opacity="0.1"/>
<rect x="454" y="453" width="50" height="50" stroke="black" stroke-opacity="0.1"/>
<rect x="204" y="3" width="50" height="50" fill="#33BEA5" stroke="black"/>
<path d="M204 3V0H201V3H204ZM254 3H257V0H254V3ZM254 53V56H257V53H254ZM204 53H201V56H204V53ZM204 6H254V0H204V6ZM251 3V53H257V3H251ZM254 50H204V56H254V50ZM207 53V3H201V53H207Z" fill="black"/>
<rect x="204" y="53" width="50" height="50" fill="#33BEA5" stroke="black"/>
<path d="M204 53V50H201V53H204ZM254 53H257V50H254V53ZM254 103V106H257V103H254ZM204 103H201V106H204V103ZM204 56H254V50H204V56ZM251 53V103H257V53H251ZM254 100H204V106H254V100ZM207 103V53H201V103H207Z" fill="black"/>
<rect x="204" y="153" width="50" height="50" fill="#33BEA5" stroke="black"/>
<path d="M204 153V150H201V153H204ZM254 153H257V150H254V153ZM254 203V206H257V203H254ZM204 203H201V206H204V203ZM204 156H254V150H204V156ZM251 153V203H257V153H251ZM254 200H204V206H254V200ZM207 203V153H201V203H207Z" fill="black"/>
<rect x="204" y="203" width="50" height="50" fill="#33BEA5" stroke="black"/>
<path d="M204 203V200H201V203H204ZM254 203H257V200H254V203ZM254 253V256H257V253H254ZM204 253H201V256H204V253ZM204 206H254V200H204V206ZM251 203V253H257V203H251ZM254 250H204V256H254V250ZM207 253V203H201V253H207Z" fill="black"/>
<rect x="204" y="253" width="50" height="50" fill="#33BEA5" stroke="black"/>
<path d="M204 253V250H201V253H204ZM254 253H257V250H254V253ZM254 303V306H257V303H254ZM204 303H201V306H204V303ZM204 256H254V250H204V256ZM251 253V303H257V253H251ZM254 300H204V306H254V300ZM207 303V253H201V303H207Z" fill="black"/>
<rect x="204" y="303" width="50" height="50" fill="#33BEA5" stroke="black"/>
<path d="M204 303V300H201V303H204ZM254 303H257V300H254V303ZM254 353V356H257V353H254ZM204 353H201V356H204V353ZM204 306H254V300H204V306ZM251 303V353H257V303H251ZM254 350H204V356H254V350ZM207 353V303H201V353H207Z" fill="black"/>
<rect x="204" y="403" width="50" height="50" fill="#33BEA5" stroke="black"/>
<path d="M204 403V400H201V403H204ZM254 403H257V400H254V403ZM254 453V456H257V453H254ZM204 453H201V456H204V453ZM204 406H254V400H204V406ZM251 403V453H257V403H251ZM254 450H204V456H254V450ZM207 453V403H201V453H207Z" fill="black"/>
<defs>
<filter id="filter0_d" x="0" y="3" width="508" height="508" filterUnits="userSpaceOnUse" color-interpolation-filters="sRGB">
<feFlood flood-opacity="0" result="BackgroundImageFix"/>
<feColorMatrix in="SourceAlpha" type="matrix" values="0 0 0 0 0 0 0 0 0 0 0 0 0 0 0 0 0 0 127 0"/>
<feOffset dy="4"/>
<feGaussianBlur stdDeviation="2"/>
<feColorMatrix type="matrix" values="0 0 0 0 0 0 0 0 0 0 0 0 0 0 0 0 0 0 0.25 0"/>
<feBlend mode="normal" in2="BackgroundImageFix" result="effect1_dropShadow"/>
<feBlend mode="normal" in="SourceGraphic" in2="effect1_dropShadow" result="shape"/>
</filter>
</defs>
</svg>
