<svg width="508" height="511" viewBox="0 0 508 511" fill="none" xmlns="http://www.w3.org/2000/svg">
<g filter="url(#filter0_d)">
<rect x="5" y="4" width="498" height="498" stroke="black" stroke-width="2"/>
</g>
<path d="M4 3V0H1V3H4ZM504 3H507V0H504V3ZM504 503V506H507V503H504ZM4 503H1V506H4V503ZM4 6H504V0H4V6ZM501 3V503H507V3H501ZM504 500H4V506H504V500ZM7 503V3H1V503H7Z" fill="black"/>
<rect x="4" y="3" width="100" height="100" stroke="black" stroke-opacity="0.1" stroke-width="2"/>
<path d="M4 3V2H3V3H4ZM104 3H105V2H104V3ZM104 103V104H105V103H104ZM4 103H3V104H4V103ZM4 4H104V2H4V4ZM103 3V103H105V3H103ZM104 102H4V104H104V102ZM5 103V3H3V103H5Z" fill="black" fill-opacity="0.1"/>
<rect x="204" y="3" width="100" height="100" stroke="black" stroke-opacity="0.1" stroke-width="2"/>
<path d="M204 3V2H203V3H204ZM304 3H305V2H304V3ZM304 103V104H305V103H304ZM204 103H203V104H204V103ZM204 4H304V2H204V4ZM303 3V103H305V3H303ZM304 102H204V104H304V102ZM205 103V3H203V103H205Z" fill="black" fill-opacity="0.1"/>
<rect x="304" y="3" width="100" height="100" stroke="black" stroke-opacity="0.1" stroke-width="2"/>
<path d="M304 3V2H303V3H304ZM404 3H405V2H404V3ZM404 103V104H405V103H404ZM304 103H303V104H304V103ZM304 4H404V2H304V4ZM403 3V103H405V3H403ZM404 102H304V104H404V102ZM305 103V3H303V103H305Z" fill="black" fill-opacity="0.1"/>
<rect x="404" y="3" width="100" height="100" stroke="black" stroke-opacity="0.1" stroke-width="2"/>
<path d="M404 3V2H403V3H404ZM504 3H505V2H504V3ZM504 103V104H505V103H504ZM404 103H403V104H404V103ZM404 4H504V2H404V4ZM503 3V103H505V3H503ZM504 102H404V104H504V102ZM405 103V3H403V103H405Z" fill="black" fill-opacity="0.1"/>
<rect x="104" y="3" width="100" height="100" stroke="black" stroke-opacity="0.1" stroke-width="2"/>
<path d="M104 3V2H103V3H104ZM204 3H205V2H204V3ZM204 103V104H205V103H204ZM104 103H103V104H104V103ZM104 4H204V2H104V4ZM203 3V103H205V3H203ZM204 102H104V104H204V102ZM105 103V3H103V103H105Z" fill="black" fill-opacity="0.1"/>
<rect x="4" y="103" width="100" height="100" stroke="black" stroke-opacity="0.1" stroke-width="2"/>
<path d="M4 103V102H3V103H4ZM104 103H105V102H104V103ZM104 203V204H105V203H104ZM4 203H3V204H4V203ZM4 104H104V102H4V104ZM103 103V203H105V103H103ZM104 202H4V204H104V202ZM5 203V103H3V203H5Z" fill="black" fill-opacity="0.1"/>
<rect x="204" y="103" width="100" height="100" stroke="black" stroke-opacity="0.1" stroke-width="2"/>
<path d="M204 103V102H203V103H204ZM304 103H305V102H304V103ZM304 203V204H305V203H304ZM204 203H203V204H204V203ZM204 104H304V102H204V104ZM303 103V203H305V103H303ZM304 202H204V204H304V202ZM205 203V103H203V203H205Z" fill="black" fill-opacity="0.1"/>
<rect x="404" y="103" width="100" height="100" stroke="black" stroke-opacity="0.1" stroke-width="2"/>
<path d="M404 103V102H403V103H404ZM504 103H505V102H504V103ZM504 203V204H505V203H504ZM404 203H403V204H404V203ZM404 104H504V102H404V104ZM503 103V203H505V103H503ZM504 202H404V204H504V202ZM405 203V103H403V203H405Z" fill="black" fill-opacity="0.1"/>
<rect x="104" y="103" width="100" height="100" stroke="black" stroke-opacity="0.1" stroke-width="2"/>
<path d="M104 103V102H103V103H104ZM204 103H205V102H204V103ZM204 203V204H205V203H204ZM104 203H103V204H104V203ZM104 104H204V102H104V104ZM203 103V203H205V103H203ZM204 202H104V204H204V202ZM105 203V103H103V203H105Z" fill="black" fill-opacity="0.1"/>
<rect x="4" y="203" width="100" height="100" stroke="black" stroke-opacity="0.1" stroke-width="2"/>
<path d="M4 203V202H3V203H4ZM104 203H105V202H104V203ZM104 303V304H105V303H104ZM4 303H3V304H4V303ZM4 204H104V202H4V204ZM103 203V303H105V203H103ZM104 302H4V304H104V302ZM5 303V203H3V303H5Z" fill="black" fill-opacity="0.1"/>
<rect x="204" y="203" width="100" height="100" stroke="black" stroke-opacity="0.1" stroke-width="2"/>
<path d="M204 203V202H203V203H204ZM304 203H305V202H304V203ZM304 303V304H305V303H304ZM204 303H203V304H204V303ZM204 204H304V202H204V204ZM303 203V303H305V203H303ZM304 302H204V304H304V302ZM205 303V203H203V303H205Z" fill="black" fill-opacity="0.1"/>
<path d="M304 203V202H303V203H304ZM404 203H405V202H404V203ZM404 303V304H405V303H404ZM304 303H303V304H304V303ZM304 204H404V202H304V204ZM403 203V303H405V203H403ZM404 302H304V304H404V302ZM305 303V203H303V303H305Z" fill="black" fill-opacity="0.1"/>
<rect x="404" y="203" width="100" height="100" stroke="black" stroke-opacity="0.1" stroke-width="2"/>
<path d="M404 203V202H403V203H404ZM504 203H505V202H504V203ZM504 303V304H505V303H504ZM404 303H403V304H404V303ZM404 204H504V202H404V204ZM503 203V303H505V203H503ZM504 302H404V304H504V302ZM405 303V203H403V303H405Z" fill="black" fill-opacity="0.1"/>
<rect x="4" y="303" width="100" height="100" stroke="black" stroke-opacity="0.1" stroke-width="2"/>
<path d="M4 303V302H3V303H4ZM104 303H105V302H104V303ZM104 403V404H105V403H104ZM4 403H3V404H4V403ZM4 304H104V302H4V304ZM103 303V403H105V303H103ZM104 402H4V404H104V402ZM5 403V303H3V403H5Z" fill="black" fill-opacity="0.1"/>
<rect x="404" y="303" width="100" height="100" stroke="black" stroke-opacity="0.1" stroke-width="2"/>
<path d="M404 303V302H403V303H404ZM504 303H505V302H504V303ZM504 403V404H505V403H504ZM404 403H403V404H404V403ZM404 304H504V302H404V304ZM503 303V403H505V303H503ZM504 402H404V404H504V402ZM405 403V303H403V403H405Z" fill="black" fill-opacity="0.1"/>
<rect x="104" y="303" width="100" height="100" stroke="black" stroke-opacity="0.1" stroke-width="2"/>
<path d="M104 303V302H103V303H104ZM204 303H205V302H204V303ZM204 403V404H205V403H204ZM104 403H103V404H104V403ZM104 304H204V302H104V304ZM203 303V403H205V303H203ZM204 402H104V404H204V402ZM105 403V303H103V403H105Z" fill="black" fill-opacity="0.1"/>
<rect x="4" y="403" width="100" height="100" stroke="black" stroke-opacity="0.1" stroke-width="2"/>
<path d="M4 403V402H3V403H4ZM104 403H105V402H104V403ZM104 503V504H105V503H104ZM4 503H3V504H4V503ZM4 404H104V402H4V404ZM103 403V503H105V403H103ZM104 502H4V504H104V502ZM5 503V403H3V503H5Z" fill="black" fill-opacity="0.1"/>
<rect x="204" y="403" width="100" height="100" stroke="black" stroke-opacity="0.1" stroke-width="2"/>
<path d="M204 403V402H203V403H204ZM304 403H305V402H304V403ZM304 503V504H305V503H304ZM204 503H203V504H204V503ZM204 404H304V402H204V404ZM303 403V503H305V403H303ZM304 502H204V504H304V502ZM205 503V403H203V503H205Z" fill="black" fill-opacity="0.1"/>
<rect x="304" y="403" width="100" height="100" stroke="black" stroke-opacity="0.1" stroke-width="2"/>
<path d="M304 403V402H303V403H304ZM404 403H405V402H404V403ZM404 503V504H405V503H404ZM304 503H303V504H304V503ZM304 404H404V402H304V404ZM403 403V503H405V403H403ZM404 502H304V504H404V502ZM305 503V403H303V503H305Z" fill="black" fill-opacity="0.1"/>
<rect x="404" y="403" width="100" height="100" stroke="black" stroke-opacity="0.1" stroke-width="2"/>
<path d="M404 403V402H403V403H404ZM504 403H505V402H504V403ZM504 503V504H505V503H504ZM404 503H403V504H404V503ZM404 404H504V402H404V404ZM503 403V503H505V403H503ZM504 502H404V504H504V502ZM405 503V403H403V503H405Z" fill="black" fill-opacity="0.1"/>
<rect x="104" y="403" width="100" height="100" stroke="black" stroke-opacity="0.1" stroke-width="2"/>
<path d="M104 403V402H103V403H104ZM204 403H205V402H204V403ZM204 503V504H205V503H204ZM104 503H103V504H104V503ZM104 404H204V402H104V404ZM203 403V503H205V403H203ZM204 502H104V504H204V502ZM105 503V403H103V503H105Z" fill="black" fill-opacity="0.1"/>
<rect x="304" y="103" width="100" height="100" fill="#33BEA5" stroke="black" stroke-width="3"/>
<path d="M304 103V102H303V103H304ZM404 103H405V102H404V103ZM404 203V204H405V203H404ZM304 203H303V204H304V203ZM304 104H404V102H304V104ZM403 103V203H405V103H403ZM404 202H304V204H404V202ZM305 203V103H303V203H305Z" fill="black"/>
<path d="M304 103V102H303V103H304ZM404 103H405V102H404V103ZM404 203V204H405V203H404ZM304 203H303V204H304V203ZM304 104H404V102H304V104ZM403 103V203H405V103H403ZM404 202H304V204H404V202ZM305 203V103H303V203H305Z" fill="black"/>
<rect x="304" y="203" width="100" height="100" fill="#33BEA5" stroke="black" stroke-width="3"/>
<path d="M304 203V202H303V203H304ZM404 203H405V202H404V203ZM404 303V304H405V303H404ZM304 303H303V304H304V303ZM304 204H404V202H304V204ZM403 203V303H405V203H403ZM404 302H304V304H404V302ZM305 303V203H303V303H305Z" fill="black"/>
<path d="M304 203V202H303V203H304ZM404 203H405V202H404V203ZM404 303V304H405V303H404ZM304 303H303V304H304V303ZM304 204H404V202H304V204ZM403 203V303H405V203H403ZM404 302H304V304H404V302ZM305 303V203H303V303H305Z" fill="black"/>
<rect x="304" y="303" width="100" height="100" fill="#33BEA5" stroke="black" stroke-width="3"/>
<path d="M304 303V302H303V303H304ZM404 303H405V302H404V303ZM404 403V404H405V403H404ZM304 403H303V404H304V403ZM304 304H404V302H304V304ZM403 303V403H405V303H403ZM404 402H304V404H404V402ZM305 403V303H303V403H305Z" fill="black"/>
<path d="M304 303V302H303V303H304ZM404 303H405V302H404V303ZM404 403V404H405V403H404ZM304 403H303V404H304V403ZM304 304H404V302H304V304ZM403 303V403H405V303H403ZM404 402H304V404H404V402ZM305 403V303H303V403H305Z" fill="black"/>
<rect x="204" y="303" width="100" height="100" fill="#33BEA5" stroke="black" stroke-width="3"/>
<path d="M204 303V302H203V303H204ZM304 303H305V302H304V303ZM304 403V404H305V403H304ZM204 403H203V404H204V403ZM204 304H304V302H204V304ZM303 303V403H305V303H303ZM304 402H204V404H304V402ZM205 403V303H203V403H205Z" fill="black"/>
<path d="M204 303V302H203V303H204ZM304 303H305V302H304V303ZM304 403V404H305V403H304ZM204 403H203V404H204V403ZM204 304H304V302H204V304ZM303 303V403H305V303H303ZM304 402H204V404H304V402ZM205 403V303H203V403H205Z" fill="black"/>
<rect x="104" y="203" width="100" height="100" fill="#33BEA5" stroke="black" stroke-width="3"/>
<path d="M104 203V202H103V203H104ZM204 203H205V202H204V203ZM204 303V304H205V303H204ZM104 303H103V304H104V303ZM104 204H204V202H104V204ZM203 203V303H205V203H203ZM204 302H104V304H204V302ZM105 303V203H103V303H105Z" fill="black"/>
<path d="M104 203V202H103V203H104ZM204 203H205V202H204V203ZM204 303V304H205V303H204ZM104 303H103V304H104V303ZM104 204H204V202H104V204ZM203 203V303H205V203H203ZM204 302H104V304H204V302ZM105 303V203H103V303H105Z" fill="black"/>
<defs>
<filter id="filter0_d" x="0" y="3" width="508" height="508" filterUnits="userSpaceOnUse" color-interpolation-filters="sRGB">
<feFlood flood-opacity="0" result="BackgroundImageFix"/>
<feColorMatrix in="SourceAlpha" type="matrix" values="0 0 0 0 0 0 0 0 0 0 0 0 0 0 0 0 0 0 127 0"/>
<feOffset dy="4"/>
<feGaussianBlur stdDeviation="2"/>
<feColorMatrix type="matrix" values="0 0 0 0 0 0 0 0 0 0 0 0 0 0 0 0 0 0 0.25 0"/>
<feBlend mode="normal" in2="BackgroundImageFix" result="effect1_dropShadow"/>
<feBlend mode="normal" in="SourceGraphic" in2="effect1_dropShadow" result="shape"/>
</filter>
</defs>
</svg>
